<?xml version="1.0" encoding="UTF-8" standalone="no"?>
<!DOCTYPE svg PUBLIC "-//W3C//DTD SVG 1.1//EN"
 "http://www.w3.org/Graphics/SVG/1.1/DTD/svg11.dtd">
<!-- Generated by graphviz version 2.50.0 (20211204.2007)
 -->
<!-- Pages: 1 -->
<svg width="614pt" height="813pt"
 viewBox="0.00 0.00 614.00 813.00" xmlns="http://www.w3.org/2000/svg" xmlns:xlink="http://www.w3.org/1999/xlink">
<g id="graph0" class="graph" transform="scale(1 1) rotate(0) translate(4 809)">
<polygon fill="white" stroke="transparent" points="-4,4 -4,-809 610,-809 610,4 -4,4"/>
<!-- DummySource_1_Pipeline_1 -->
<g id="node1" class="node">
<title>DummySource_1_Pipeline_1</title>
<polygon fill="none" stroke="black" points="398,-805 208,-805 208,-642 398,-642 398,-805"/>
<text text-anchor="middle" x="303" y="-773.8" font-family="Times,serif" font-size="14.00">StageName:DummySource</text>
<text text-anchor="middle" x="303" y="-742.8" font-family="Times,serif" font-size="14.00">StageType:DummySource</text>
<text text-anchor="middle" x="303" y="-711.8" font-family="Times,serif" font-size="14.00">Channels:[&#39;default&#39;]</text>
<text text-anchor="middle" x="303" y="-680.8" font-family="Times,serif" font-size="14.00">Processes:1</text>
<text text-anchor="middle" x="303" y="-649.8" font-family="Times,serif" font-size="14.00">ErrorMethod:STOP_PIPELINE</text>
</g>
<!-- test_1_Pipeline_1 -->
<g id="node2" class="node">
<title>test_1_Pipeline_1</title>
<polygon fill="none" stroke="black" points="398,-591 208,-591 208,-428 398,-428 398,-591"/>
<text text-anchor="middle" x="303" y="-559.8" font-family="Times,serif" font-size="14.00">StageName:test</text>
<text text-anchor="middle" x="303" y="-528.8" font-family="Times,serif" font-size="14.00">StageType:BranchStage</text>
<text text-anchor="middle" x="303" y="-497.8" font-family="Times,serif" font-size="14.00">Channels:[&#39;hello&#39;,&#39;goodbye&#39;]</text>
<text text-anchor="middle" x="303" y="-466.8" font-family="Times,serif" font-size="14.00">Processes:1</text>
<text text-anchor="middle" x="303" y="-435.8" font-family="Times,serif" font-size="14.00">ErrorMethod:STOP_PIPELINE</text>
</g>
<!-- DummySource_1_Pipeline_1&#45;&gt;test_1_Pipeline_1 -->
<g id="edge1" class="edge">
<title>DummySource_1_Pipeline_1&#45;&gt;test_1_Pipeline_1</title>
<path fill="none" stroke="black" d="M303,-641.75C303,-628.51 303,-614.71 303,-601.24"/>
<polygon fill="black" stroke="black" points="306.5,-601.03 303,-591.03 299.5,-601.03 306.5,-601.03"/>
<text text-anchor="middle" x="348.5" y="-612.8" font-family="Times,serif" font-size="14.00">Channel: default</text>
</g>
<!-- renamer_1_Pipeline_1 -->
<g id="node3" class="node">
<title>renamer_1_Pipeline_1</title>
<polygon fill="none" stroke="black" points="190,-377 0,-377 0,-214 190,-214 190,-377"/>
<text text-anchor="middle" x="95" y="-345.8" font-family="Times,serif" font-size="14.00">StageName:renamer</text>
<text text-anchor="middle" x="95" y="-314.8" font-family="Times,serif" font-size="14.00">StageType:RenameFieldsStage</text>
<text text-anchor="middle" x="95" y="-283.8" font-family="Times,serif" font-size="14.00">Channels:[&#39;default&#39;]</text>
<text text-anchor="middle" x="95" y="-252.8" font-family="Times,serif" font-size="14.00">Processes:1</text>
<text text-anchor="middle" x="95" y="-221.8" font-family="Times,serif" font-size="14.00">ErrorMethod:STOP_PIPELINE</text>
</g>
<!-- test_1_Pipeline_1&#45;&gt;renamer_1_Pipeline_1 -->
<g id="edge2" class="edge">
<title>test_1_Pipeline_1&#45;&gt;renamer_1_Pipeline_1</title>
<path fill="none" stroke="black" d="M223.77,-427.75C209.89,-413.6 195.38,-398.81 181.32,-384.48"/>
<polygon fill="black" stroke="black" points="183.51,-381.72 174.01,-377.03 178.51,-386.62 183.51,-381.72"/>
<text text-anchor="middle" x="246" y="-398.8" font-family="Times,serif" font-size="14.00">Channel: hello</text>
</g>
<!-- log_1_1_Pipeline_1 -->
<g id="node4" class="node">
<title>log_1_1_Pipeline_1</title>
<polygon fill="none" stroke="black" points="398,-377 208,-377 208,-214 398,-214 398,-377"/>
<text text-anchor="middle" x="303" y="-345.8" font-family="Times,serif" font-size="14.00">StageName:log_1</text>
<text text-anchor="middle" x="303" y="-314.8" font-family="Times,serif" font-size="14.00">StageType:LoggerSink</text>
<text text-anchor="middle" x="303" y="-283.8" font-family="Times,serif" font-size="14.00">Channels:[&#39;default&#39;]</text>
<text text-anchor="middle" x="303" y="-252.8" font-family="Times,serif" font-size="14.00">Processes:1</text>
<text text-anchor="middle" x="303" y="-221.8" font-family="Times,serif" font-size="14.00">ErrorMethod:STOP_PIPELINE</text>
</g>
<!-- test_1_Pipeline_1&#45;&gt;log_1_1_Pipeline_1 -->
<g id="edge3" class="edge">
<title>test_1_Pipeline_1&#45;&gt;log_1_1_Pipeline_1</title>
<path fill="none" stroke="black" d="M303,-427.75C303,-414.51 303,-400.71 303,-387.24"/>
<polygon fill="black" stroke="black" points="306.5,-387.03 303,-377.03 299.5,-387.03 306.5,-387.03"/>
<text text-anchor="middle" x="353" y="-398.8" font-family="Times,serif" font-size="14.00">Channel: goodbye</text>
</g>
<!-- log_2_2_Pipeline_1 -->
<g id="node5" class="node">
<title>log_2_2_Pipeline_1</title>
<polygon fill="none" stroke="black" points="606,-377 416,-377 416,-214 606,-214 606,-377"/>
<text text-anchor="middle" x="511" y="-345.8" font-family="Times,serif" font-size="14.00">StageName:log_2</text>
<text text-anchor="middle" x="511" y="-314.8" font-family="Times,serif" font-size="14.00">StageType:LoggerSink</text>
<text text-anchor="middle" x="511" y="-283.8" font-family="Times,serif" font-size="14.00">Channels:[&#39;default&#39;]</text>
<text text-anchor="middle" x="511" y="-252.8" font-family="Times,serif" font-size="14.00">Processes:1</text>
<text text-anchor="middle" x="511" y="-221.8" font-family="Times,serif" font-size="14.00">ErrorMethod:STOP_PIPELINE</text>
</g>
<!-- test_1_Pipeline_1&#45;&gt;log_2_2_Pipeline_1 -->
<g id="edge4" class="edge">
<title>test_1_Pipeline_1&#45;&gt;log_2_2_Pipeline_1</title>
<path fill="none" stroke="black" d="M389.16,-427.81C395.25,-421.83 401.25,-415.85 407,-410 415.05,-401.81 423.33,-393.18 431.54,-384.47"/>
<polygon fill="black" stroke="black" points="434.11,-386.84 438.4,-377.15 429.01,-382.05 434.11,-386.84"/>
<text text-anchor="middle" x="468" y="-398.8" font-family="Times,serif" font-size="14.00">Channel: goodbye</text>
</g>
<!-- log_3_3_Pipeline_1 -->
<g id="node6" class="node">
<title>log_3_3_Pipeline_1</title>
<polygon fill="none" stroke="black" points="190,-163 0,-163 0,0 190,0 190,-163"/>
<text text-anchor="middle" x="95" y="-131.8" font-family="Times,serif" font-size="14.00">StageName:log_3</text>
<text text-anchor="middle" x="95" y="-100.8" font-family="Times,serif" font-size="14.00">StageType:LoggerSink</text>
<text text-anchor="middle" x="95" y="-69.8" font-family="Times,serif" font-size="14.00">Channels:[&#39;default&#39;]</text>
<text text-anchor="middle" x="95" y="-38.8" font-family="Times,serif" font-size="14.00">Processes:1</text>
<text text-anchor="middle" x="95" y="-7.8" font-family="Times,serif" font-size="14.00">ErrorMethod:STOP_PIPELINE</text>
</g>
<!-- renamer_1_Pipeline_1&#45;&gt;log_3_3_Pipeline_1 -->
<g id="edge5" class="edge">
<title>renamer_1_Pipeline_1&#45;&gt;log_3_3_Pipeline_1</title>
<path fill="none" stroke="black" d="M95,-213.75C95,-200.51 95,-186.71 95,-173.24"/>
<polygon fill="black" stroke="black" points="98.5,-173.03 95,-163.03 91.5,-173.03 98.5,-173.03"/>
<text text-anchor="middle" x="140.5" y="-184.8" font-family="Times,serif" font-size="14.00">Channel: default</text>
</g>
</g>
</svg>
